# xmcd
# Copyright (C) 1995-1998 Ti Kan
#
# Track frame offsets:
#       150
#       6244
#       20709
#       30983
#       43455
#       55025
#       70068
#       77981
#       114027
#       119719
#       127302
#       145917
#       161330
#       176341
#       190665
#       204809
#       219963
#       242551
#       262531
#       273969
#       284994
#       297403
#
# Disc length: 4157 seconds
#
# Revision: 0
# Processed by: cddbd v1.5.2PL0 Copyright (c) Steve Scherf et al.
# Submitted via: CD-Transfer v1.0
#
DISCID=3f103b16
DTITLE=The Original Usa Gospel Singers - Usa Gospel Singers and Band
DYEAR=06
DGENRE=
TTITLE0=Intro
TTITLE1=Oh Happy Day
TTITLE2=Swing Low, Sweet Chariot Girls
TTITLE3=Swing Low, Sweet Chariot Boys
TTITLE4=Down By The River Side
TTITLE5=I`ll Take You There
TTITLE6=Every Time I Feel The Spirit
TTITLE7=His Eyes On The Sparrow
TTITLE8=Joshua Fit The Battle
TTITLE9=Hush
TTITLE10=This Little Light Of Mine
TTITLE11=Kum Ba Yah
TTITLE12=Michael Row The Boat
TTITLE13=Nobody Know
TTITLE14=Total Praise
TTITLE15=When The Saints Go Marching In
TTITLE16=He's Got The Whole World
TTITLE17=Sometimes I Feel
TTITLE18=I Will Sing Hallelujah
TTITLE19=Old Time Religion
TTITLE20=Go Tell It On The Mountain
TTITLE21=Go Down Moses
EXTD=
EXTT0=
EXTT1=
EXTT2=
EXTT3=
EXTT4=
EXTT5=
EXTT6=
EXTT7=
EXTT8=
EXTT9=
EXTT10=
EXTT11=
EXTT12=
EXTT13=
EXTT14=
EXTT15=
EXTT16=
EXTT17=
EXTT18=
EXTT19=
EXTT20=
EXTT21=
PLAYORDER=
